<svg width="391" height="494" viewBox="0 0 391 494" fill="none" xmlns="http://www.w3.org/2000/svg">
<path d="M379.912 3.69237H11.0881C6.79134 3.69237 3.30696 7.17252 3.30696 11.4658V219.793C3.30696 224.085 6.79134 227.566 11.0881 227.566H379.912C384.209 227.566 387.693 224.085 387.693 219.793V11.4658C387.693 7.17252 384.209 3.69237 379.912 3.69237ZM161.66 80.8815C166.953 80.8815 171.153 85.2354 171.153 90.3643C171.153 95.4955 166.795 99.8478 161.66 99.8478C156.525 99.8478 152.169 95.4947 152.169 90.3643C151.857 85.2354 156.213 80.8815 161.66 80.8815ZM245.852 149.133C245.384 150.065 244.45 150.377 243.518 150.377H147.343C146.254 150.377 145.476 149.91 145.008 148.978C144.698 147.889 144.854 146.801 145.476 146.178L173.488 107.778C174.111 106.69 175.513 106.378 176.756 107.156L188.738 113.374L208.345 86.9448C208.813 86.3229 209.747 85.8573 210.679 85.8573C211.613 85.8573 212.236 86.3237 212.704 87.2565L245.853 146.49C246.32 147.423 246.163 148.201 245.852 149.133Z" fill="#41B883"/>
<path d="M379.331 249.655H11.019C8.72925 249.655 6.87305 251.511 6.87305 253.801C6.87305 256.09 8.72924 257.947 11.019 257.947H379.331C381.621 257.947 383.477 256.09 383.477 253.801C383.477 251.511 381.621 249.655 379.331 249.655Z" fill="#41B883"/>
<path d="M270.917 266.756H97.593C95.3033 266.756 93.4471 268.612 93.4471 270.902C93.4471 273.192 95.3033 275.048 97.593 275.048H270.917C273.207 275.048 275.063 273.192 275.063 270.902C275.063 268.612 273.207 266.756 270.917 266.756Z" fill="#41B883"/>
<path d="M78.0092 266.756H11.019C8.72925 266.756 6.87305 268.612 6.87305 270.902C6.87305 273.192 8.72925 275.048 11.019 275.048H78.0092C80.2989 275.048 82.1551 273.192 82.1551 270.902C82.1551 268.612 80.2989 266.756 78.0092 266.756Z" fill="#41B883"/>
<path d="M344.318 266.756H289.09C286.801 266.756 284.944 268.612 284.944 270.902C284.944 273.192 286.801 275.048 289.09 275.048H344.318C346.608 275.048 348.464 273.192 348.464 270.902C348.464 268.612 346.608 266.756 344.318 266.756Z" fill="#41B883"/>
<path d="M186.787 283.858H11.019C8.72925 283.858 6.87305 285.714 6.87305 288.004C6.87305 290.293 8.72924 292.15 11.019 292.15H186.787C189.076 292.15 190.932 290.293 190.932 288.004C190.932 285.714 189.076 283.858 186.787 283.858Z" fill="#41B883"/>
<path d="M365.845 283.858H206.583C204.293 283.858 202.437 285.714 202.437 288.004C202.437 290.293 204.293 292.15 206.583 292.15H365.845C368.135 292.15 369.991 290.293 369.991 288.004C369.991 285.714 368.135 283.858 365.845 283.858Z" fill="#41B883"/>
<path d="M285.958 300.959H11.019C8.72925 300.959 6.87305 302.815 6.87305 305.105C6.87305 307.395 8.72926 309.251 11.019 309.251H285.958C288.248 309.251 290.104 307.395 290.104 305.105C290.104 302.815 288.248 300.959 285.958 300.959Z" fill="#41B883"/>
<path d="M379.333 300.959H306.701C304.412 300.959 302.555 302.815 302.555 305.105C302.555 307.395 304.412 309.251 306.701 309.251H379.333C381.623 309.251 383.479 307.395 383.479 305.105C383.479 302.815 381.623 300.959 379.333 300.959Z" fill="#41B883"/>
<path d="M379.331 318.061H11.019C8.72925 318.061 6.87305 319.917 6.87305 322.207C6.87305 324.496 8.72926 326.352 11.019 326.352H379.331C381.621 326.352 383.477 324.496 383.477 322.207C383.477 319.917 381.621 318.061 379.331 318.061Z" fill="#41B883"/>
<path d="M179.1 335.162H11.019C8.72925 335.162 6.87305 337.018 6.87305 339.308C6.87305 341.598 8.72925 343.454 11.019 343.454H179.1C181.389 343.454 183.246 341.598 183.246 339.308C183.246 337.018 181.389 335.162 179.1 335.162Z" fill="#41B883"/>
<path d="M349.505 335.162H196.728C194.438 335.162 192.582 337.018 192.582 339.308C192.582 341.598 194.438 343.454 196.728 343.454H349.505C351.795 343.454 353.651 341.598 353.651 339.308C353.651 337.018 351.795 335.162 349.505 335.162Z" fill="#41B883"/>
<path d="M379.331 352.264H11.019C8.72925 352.264 6.87305 354.12 6.87305 356.41C6.87305 358.699 8.72926 360.556 11.019 360.556H379.331C381.621 360.556 383.477 358.699 383.477 356.41C383.477 354.12 381.621 352.264 379.331 352.264Z" fill="#41B883"/>
<path d="M379.331 367.033H11.019C8.72925 367.033 6.87305 368.889 6.87305 371.179C6.87305 373.469 8.72926 375.325 11.019 375.325H379.331C381.621 375.325 383.477 373.469 383.477 371.179C383.477 368.889 381.621 367.033 379.331 367.033Z" fill="#41B883"/>
<path d="M271.122 384.135H97.6591C95.3694 384.135 93.5132 385.991 93.5132 388.281C93.5132 390.57 95.3694 392.426 97.6591 392.426H271.122C273.412 392.426 275.268 390.57 275.268 388.281C275.268 385.991 273.412 384.135 271.122 384.135Z" fill="#41B883"/>
<path d="M78.0668 384.135H11.019C8.72924 384.135 6.87305 385.991 6.87305 388.281C6.87305 390.57 8.72924 392.426 11.019 392.426H78.0668C80.3565 392.426 82.2127 390.57 82.2127 388.281C82.2127 385.991 80.3565 384.135 78.0668 384.135Z" fill="#41B883"/>
<path d="M344.576 384.135H289.302C287.012 384.135 285.156 385.991 285.156 388.281C285.156 390.57 287.012 392.426 289.302 392.426H344.576C346.866 392.426 348.722 390.57 348.722 388.281C348.722 385.991 346.866 384.135 344.576 384.135Z" fill="#41B883"/>
<path d="M176.006 401.236H11.019C8.72925 401.236 6.87305 403.092 6.87305 405.382C6.87305 407.672 8.72926 409.528 11.019 409.528H176.006C178.296 409.528 180.152 407.672 180.152 405.382C180.152 403.092 178.296 401.236 176.006 401.236Z" fill="#41B883"/>
<path d="M344.579 401.236H195.129C192.839 401.236 190.983 403.092 190.983 405.382C190.983 407.672 192.839 409.528 195.129 409.528H344.579C346.868 409.528 348.725 407.672 348.725 405.382C348.725 403.092 346.868 401.236 344.579 401.236Z" fill="#41B883"/>
<path d="M285.958 418.338H11.019C8.72925 418.338 6.87305 420.194 6.87305 422.483C6.87305 424.773 8.72926 426.629 11.019 426.629H285.958C288.248 426.629 290.104 424.773 290.104 422.483C290.104 420.194 288.248 418.338 285.958 418.338Z" fill="#41B883"/>
<path d="M379.333 418.338H306.701C304.412 418.338 302.555 420.194 302.555 422.483C302.555 424.773 304.412 426.629 306.701 426.629H379.333C381.623 426.629 383.479 424.773 383.479 422.483C383.479 420.194 381.623 418.338 379.333 418.338Z" fill="#41B883"/>
<path d="M344.577 435.439H11.019C8.72925 435.439 6.87305 437.295 6.87305 439.585C6.87305 441.875 8.72924 443.731 11.019 443.731H344.577C346.867 443.731 348.723 441.875 348.723 439.585C348.723 437.295 346.867 435.439 344.577 435.439Z" fill="#41B883"/>
<path d="M179.1 452.541H11.019C8.72925 452.541 6.87305 454.397 6.87305 456.686C6.87305 458.976 8.72925 460.832 11.019 460.832H179.1C181.389 460.832 183.246 458.976 183.246 456.686C183.246 454.397 181.389 452.541 179.1 452.541Z" fill="#41B883"/>
<path d="M379.331 452.541H179.589C177.3 452.541 175.443 454.397 175.443 456.686C175.443 458.976 177.3 460.832 179.589 460.832H379.331C381.621 460.832 383.477 458.976 383.477 456.686C383.477 454.397 381.621 452.541 379.331 452.541Z" fill="#41B883"/>
<path d="M344.577 469.642H11.019C8.72925 469.642 6.87305 471.498 6.87305 473.788C6.87305 476.078 8.72924 477.934 11.019 477.934H344.577C346.867 477.934 348.723 476.078 348.723 473.788C348.723 471.498 346.867 469.642 344.577 469.642Z" fill="#41B883"/>
</svg>
